<svg viewBox="0 0 22 22" xmlns="http://www.w3.org/2000/svg" xmlns:xlink="http://www.w3.org/1999/xlink" width="22.000000" height="22.000000" fill="none">
	<rect id="shopping-bag-02" width="22.000000" height="22.000000" x="0.000000" y="0.000000" />
	<path id="Icon" d="M20.772 16.5852C20.9426 18.4049 21.0279 19.3148 20.726 20.0175C20.4607 20.6349 19.9959 21.1453 19.406 21.467C18.7345 21.8333 17.8207 21.8333 15.993 21.8333L7.53509 21.8333C5.70741 21.8333 4.79357 21.8333 4.12206 21.467C3.53216 21.1453 3.06734 20.6349 2.80209 20.0175C2.50015 19.3148 2.58545 18.4049 2.75604 16.5852L3.35604 10.1852C3.5001 8.6486 3.57213 7.88029 3.9177 7.29941C4.22205 6.78784 4.67171 6.37836 5.20946 6.12309C5.82005 5.83325 6.59173 5.83325 8.13509 5.83325L15.393 5.83325C16.9364 5.83325 17.708 5.83325 18.3186 6.1231C18.8564 6.37836 19.306 6.78784 19.6104 7.29942C19.9559 7.88029 20.028 8.6486 20.172 10.1852L20.772 16.5852ZM7.76404 8.83325L7.76404 5.83325C7.76404 3.62411 9.5549 1.83325 11.764 1.83325C13.9732 1.83325 15.764 3.62411 15.764 5.83325L15.764 8.83325" fill-rule="nonzero" stroke="rgb(34,34,34)" stroke-linecap="square" stroke-linejoin="round" stroke-width="1.000000" />
</svg>
