<svg viewBox="0 0 193.665 144.331" xmlns="http://www.w3.org/2000/svg" xmlns:xlink="http://www.w3.org/1999/xlink" width="193.665039" height="144.330566" fill="none" customFrame="#000000">
	<path id="Vector" d="M96.8498 0C150.309 0 193.665 32.3066 193.665 72.1653C193.665 109.157 156.323 139.645 108.213 143.841L108.213 136.708C147.128 132.198 180.273 105.031 180.273 72.1653C180.273 36.1526 140.45 6.99276 96.8498 6.99276C86.7452 6.99276 76.8155 8.56613 67.5851 11.4332L67.4802 100.101L85.1719 100.101L85.1719 38.0406L130.59 38.0406C148.142 38.0406 162.197 53.2849 162.197 72.3401C162.197 91.3954 148.561 106.64 131.289 106.64L101.15 106.64L101.15 144.261C99.7168 144.296 98.2833 144.331 96.8148 144.331C43.3551 144.331 0 112.024 0 72.1653C0 46.6767 17.7616 24.2649 44.5439 11.4332L44.5439 22.0272C25.9082 33.9848 13.4261 51.9912 13.4261 72.1653C13.4261 104.926 46.397 132.023 85.1719 136.674L85.1719 106.64L51.5716 106.64L51.5716 8.35635C65.0677 3.00689 80.4867 0 96.8498 0ZM101.185 44.6138L101.185 100.031L121.394 100.031C135.03 99.507 146.324 87.1998 146.324 72.3052C146.324 55.2079 135.73 44.6138 120.136 44.6138L101.185 44.6138Z" fill="rgb(34,34,34)" fill-rule="evenodd" />
</svg>
