<svg viewBox="0 0 168.539 40" xmlns="http://www.w3.org/2000/svg" xmlns:xlink="http://www.w3.org/1999/xlink" width="168.539062" height="40.000000" fill="none">
	<rect id="лого" width="168.538620" height="40.000000" x="0.000000" y="0.000000" fill="rgb(255,255,255)" fill-opacity="0" />
	<g id="Group 243" opacity="0">
		<path id="Vector" d="M26.8356 0C41.6559 0 53.6712 8.95698 53.6712 20C53.6712 30.2534 43.3176 38.7036 29.9823 39.8645L29.9823 37.8904C40.7661 36.6411 49.9588 29.1102 49.9588 20.0059C49.9588 10.0236 38.9216 1.93872 26.8356 1.93872C24.0306 1.93872 21.2846 2.37478 18.7213 3.1703L18.6977 27.7431L23.6064 27.7431L23.6064 10.5539L36.1933 10.5539C41.0607 10.5539 44.9558 14.779 44.9558 20.0589C44.9558 25.3388 41.1786 29.5698 36.3819 29.5698L28.0318 29.5698L28.0318 39.9941C27.637 40.0059 27.2363 40.0118 26.8297 40.0118C12.0153 40 0 31.0489 0 20C0 12.9346 4.92045 6.72363 12.3453 3.16441L12.3453 6.10489C7.17737 9.41662 3.71833 14.4137 3.71833 20C3.71833 29.0807 12.858 36.594 23.6064 37.8786L23.6064 29.558L14.2899 29.558L14.2899 2.31585C18.0318 0.836771 22.3041 0 26.8356 0ZM28.0377 12.3689L28.0377 27.7313L33.6358 27.7313C37.419 27.584 40.548 24.178 40.548 20.0471C40.548 15.3094 37.6075 12.3689 33.2882 12.3689L28.0377 12.3689Z" fill="rgb(34,34,34)" fill-rule="evenodd" />
		<path id="Vector" d="M60.6369 9.48143L65.7165 9.48143C67.7318 9.48143 69.2934 11.1314 69.2934 13.1232C69.2934 15.1149 67.7789 16.7649 65.799 16.7649L62.4696 16.7649L62.4696 19.2929L60.6016 19.2929L60.6016 9.47554L60.6428 9.47554L60.6369 9.48143ZM64.5379 10.2534L62.4578 10.2534L62.4578 15.9988L64.6735 15.9988C66.1997 15.9399 67.4195 14.6494 67.4195 13.1232C67.4195 11.373 66.2763 10.2534 64.532 10.2534L64.5379 10.2534ZM77.4843 17.0595L78.4095 18.0141C78.8396 18.462 79.152 18.7743 79.7471 18.9923L79.7471 19.287C78.492 19.3164 77.2014 19.452 76.2291 18.4738C75.5102 17.7549 74.8326 16.7649 73.7424 16.7649L72.9233 16.7649L72.9233 19.2929L71.0553 19.2929L71.0553 9.47554L76.1702 9.47554C78.1855 9.47554 79.7471 11.1196 79.7471 13.1173C79.7471 14.7849 78.6275 16.317 76.9775 16.6824C77.06 16.7354 77.1484 16.7943 77.2309 16.8533C77.337 16.9299 77.4313 17.0006 77.4902 17.0654L77.4843 17.0595ZM74.9976 10.2534L72.9174 10.2534L72.9174 15.9988L75.1331 15.9988C75.4454 15.987 75.7459 15.9163 76.0347 15.8044C77.1484 15.3624 77.8791 14.3253 77.8791 13.1232C77.8791 11.373 76.7359 10.2534 74.9917 10.2534L74.9976 10.2534ZM86.9009 9.44608C89.8885 9.44608 91.8862 11.426 91.8862 14.4137C91.8862 17.4013 89.8355 19.3518 86.9009 19.3518C83.9663 19.3518 81.9156 17.4013 81.9156 14.4078C81.9156 11.4143 83.9133 9.44019 86.9009 9.44019L86.9009 9.44608ZM86.9009 18.5798C89.2109 18.5798 90.1596 16.4408 90.1596 14.4078C90.1596 12.3748 89.2109 10.2121 86.9009 10.2121C84.591 10.2121 83.6422 12.3807 83.6422 14.4078C83.6422 16.4349 84.591 18.5798 86.9009 18.5798ZM98.6452 16.8709L102.145 9.48143L102.947 9.48143C101.397 12.7519 99.8414 16.0224 98.3034 19.2988L97.6847 19.2988C96.2115 16.0342 94.7501 12.7578 93.2828 9.48143L95.3335 9.48143L98.6511 16.8709L98.6452 16.8709ZM102.805 19.2398L102.776 19.2988L103.577 19.2988L104.526 17.2893L109.482 17.2893L110.384 19.2988L112.434 19.2988C110.961 16.0283 109.494 12.7578 108.032 9.48143L107.414 9.48143L102.794 19.2398L102.805 19.2398ZM104.886 16.541L107.078 11.9092L109.158 16.541L104.891 16.541L104.886 16.541ZM122.882 9.48143L124.243 9.48143L117.932 13.6653L123.854 19.0336L123.854 19.2929C123.065 19.2929 122.275 19.2929 121.48 19.2929L116.335 14.7142L115.687 15.1444L115.687 19.2929C115.062 19.2929 114.444 19.2929 113.819 19.2929C113.813 16.0224 113.813 12.746 113.819 9.47554L115.687 9.47554L115.687 14.2663L122.87 9.47554L122.882 9.47554L122.882 9.48143ZM125.44 19.2398L130.059 9.48143L130.678 9.48143C132.14 12.7519 133.613 16.0283 135.08 19.2988L133.029 19.2988L132.128 17.2893L127.172 17.2893L126.223 19.2988L125.422 19.2988L125.445 19.2398L125.44 19.2398ZM127.52 16.541L131.786 16.541L129.706 11.9092L127.514 16.541L127.52 16.541ZM134.732 10.2121L134.732 10.2534L138.551 10.2534L138.551 19.2988L140.413 19.2988L140.413 10.2534L143.784 10.2534L143.784 9.48143L134.727 9.48143L134.727 10.2121L134.732 10.2121ZM147.691 9.51679L147.691 19.2929C147.066 19.2929 146.447 19.2929 145.823 19.2929C145.817 16.0224 145.817 12.746 145.823 9.47554L147.691 9.47554L147.691 9.51679ZM154.933 16.8709L158.433 9.48143L159.234 9.48143C157.685 12.7519 156.129 16.0224 154.591 19.2988L153.972 19.2988C152.499 16.0342 151.032 12.7578 149.57 9.48143C150.254 9.48143 150.937 9.48143 151.621 9.48143L154.939 16.8709L154.933 16.8709ZM168.539 9.51679L168.539 10.2121L162.947 10.2121L162.947 13.2999L166.176 13.2999L166.176 14.0365L162.947 14.0365L162.947 18.5622L168.539 18.5622L168.539 19.2988L161.079 19.2988L161.079 9.48143L168.539 9.48143L168.539 9.52268L168.539 9.51679Z" fill="rgb(34,34,34)" fill-rule="evenodd" />
		<path id="Vector" d="M62.4644 21.6794L62.4644 30.7189L68.0566 30.7189L68.0566 31.4555L60.5964 31.4555C60.5905 28.185 60.5964 24.9145 60.5964 21.6382L62.4644 21.6382L62.4644 21.6794ZM74.2734 21.6028C77.2611 21.6028 79.2587 23.5828 79.2587 26.5704C79.2587 29.558 77.208 31.5085 74.2734 31.5085C71.3389 31.5085 69.2882 29.558 69.2882 26.5645C69.2882 23.571 71.2858 21.5969 74.2734 21.5969L74.2734 21.6028ZM74.2734 30.7425C76.5834 30.7425 77.5321 28.6034 77.5321 26.5704C77.5321 24.5374 76.5834 22.3748 74.2734 22.3748C71.9635 22.3748 71.0148 24.5433 71.0148 26.5704C71.0148 28.5975 71.9635 30.7425 74.2734 30.7425ZM86.2652 21.6028C89.2528 21.6028 91.2505 23.5828 91.2505 26.5704C91.2505 29.558 89.1998 31.5085 86.2652 31.5085C83.3306 31.5085 81.2799 29.558 81.2799 26.5645C81.2799 23.571 83.2776 21.5969 86.2652 21.5969L86.2652 21.6028ZM86.2652 30.7425C88.5752 30.7425 89.5239 28.6034 89.5239 26.5704C89.5239 24.5374 88.5752 22.3748 86.2652 22.3748C83.9552 22.3748 83.0065 24.5433 83.0065 26.5704C83.0065 28.5975 83.9552 30.7425 86.2652 30.7425ZM102.582 21.6382L103.943 21.6382L97.6323 25.822L103.555 31.1962L103.555 31.4437C102.806 31.5085 101.946 31.4555 101.18 31.4555L96.0354 26.8768L95.3872 27.307L95.3872 31.4555C94.7626 31.4555 94.1438 31.4555 93.5192 31.4555L93.5192 21.6441L95.3872 21.6441L95.3872 26.4349L102.57 21.6441L102.582 21.6441L102.582 21.6382Z" fill="rgb(34,34,34)" fill-rule="evenodd" />
	</g>
	<g id="Group 242">
		<path id="Vector" d="M37.1684 7.99743C34.8631 4.71598 31.5486 2.18494 27.7823 0.806235C26.9544 0.503058 26.1086 0.254755 25.2491 0.0613251C24.45 -0.12113 23.6385 -0.25557 22.8229 -0.343368C21.5007 -0.487411 20.1647 -0.509361 18.8384 -0.413332L18.8384 10.7768L12.3137 10.7768L12.3137 36.1654C11.9032 35.9267 11.5023 35.6716 11.111 35.4027C11.0382 35.3519 10.9654 35.3012 10.8926 35.2504C9.45782 34.2325 8.18914 33.0143 7.09209 31.6301C4.6728 28.5805 3.23523 24.8532 2.95239 20.9737C2.66543 17.0488 3.53593 13.076 5.51997 9.67107C7.43123 6.39237 10.2281 3.80782 13.6277 2.13692C13.6291 2.13555 13.6415 2.12869 13.6579 2.12183C13.6593 2.12046 13.6607 2.12046 13.6634 2.11909C13.6689 2.11634 13.6744 2.1136 13.6785 2.11223C13.6813 2.11086 13.684 2.10948 13.6868 2.10811C13.6868 2.10674 13.6909 2.10674 13.6936 2.10537C13.6964 2.104 13.6991 2.10262 13.7019 2.10125C13.7032 2.09988 13.7046 2.09988 13.706 2.09851C13.7074 2.09851 13.7087 2.09851 13.7115 2.09577C13.7431 2.08205 13.7774 2.06559 13.7856 2.06284C13.8859 2.01757 13.9861 1.9723 14.0877 1.9284C14.3184 1.82963 14.5518 1.7336 14.7879 1.64306C15.2314 1.47295 15.6818 1.32068 16.1376 1.18486C16.1871 1.17114 16.2365 1.15605 16.2859 1.14234C16.2873 1.14096 16.2887 1.14096 16.2914 1.13959C16.3875 1.1149 16.485 1.08746 16.5811 1.06414C16.6086 1.05728 16.6347 1.05042 16.6621 1.04356L16.6621 -0.149938C15.8864 -0.0182417 15.1188 0.15461 14.3623 0.367246C10.5013 1.45512 7.0097 3.76667 4.47371 6.86977C1.91163 10.0058 0.361474 13.9402 0.0566607 17.9748C-0.255018 22.0876 0.725328 26.2676 2.84529 29.8097C4.91446 33.2654 8.03262 35.9871 11.6931 37.6539C11.8977 37.7472 12.105 37.8377 12.3137 37.9228C13.592 38.4509 14.9294 38.8419 16.2928 39.0998L16.2928 27.8274L23.7868 27.8274C27.6849 27.8274 30.8305 24.6118 31.3893 20.5813C31.447 20.1615 31.4772 19.7335 31.4772 19.2987C31.4772 19.182 31.4744 19.0654 31.4703 18.9488C31.3028 14.382 27.8743 10.7768 23.6124 10.7768L22.8229 10.7768L22.8229 0.770567C22.8229 0.770567 22.8339 0.771939 22.8394 0.773311C22.9795 0.79526 23.1168 0.819953 23.2513 0.846018C23.3584 0.866596 23.4628 0.887173 23.5658 0.910495C23.8102 0.962625 24.0477 1.02024 24.2756 1.08197C24.3195 1.09295 24.3635 1.1053 24.4074 1.11764C24.4349 1.12313 24.4623 1.12999 24.4898 1.13822L24.4912 1.13822L24.4912 1.13959C24.4953 1.14096 24.5035 1.14371 24.5145 1.14645C24.5269 1.15057 24.5392 1.15331 24.5516 1.15743C24.5955 1.16977 24.6395 1.18212 24.6834 1.19584C24.7067 1.20132 24.726 1.20818 24.7397 1.2123C24.7685 1.2219 24.7987 1.23013 24.8276 1.23974C24.9072 1.26443 24.9868 1.28912 25.0651 1.31519C25.0733 1.31656 25.0802 1.3193 25.0884 1.32205C25.4235 1.43042 25.7571 1.54977 26.0853 1.67735C26.3063 1.76378 26.5246 1.85432 26.7416 1.94761C26.8432 1.99151 26.9434 2.03678 27.0437 2.08205C27.0491 2.08342 27.0601 2.09028 27.0725 2.09577C27.0725 2.09577 27.0766 2.09714 27.078 2.09851C27.0835 2.09988 27.0876 2.10262 27.0931 2.10537C27.0958 2.10537 27.0986 2.10811 27.0999 2.10948C27.1027 2.10948 27.1041 2.11086 27.1068 2.11086C27.1068 2.11223 27.1096 2.11223 27.1096 2.11223L27.1109 2.11223L27.1137 2.11497C27.1137 2.11497 27.1164 2.11497 27.1178 2.11497L27.1192 2.11497C27.1192 2.11497 27.1233 2.11771 27.1233 2.11909L27.1247 2.11909C27.1247 2.11909 27.1247 2.12046 27.1274 2.12046C27.1658 2.13829 27.2043 2.15613 27.2427 2.17533C27.6656 2.38111 28.0803 2.60335 28.4867 2.8393C30.1041 3.7845 31.5486 4.94919 32.809 6.3279C35.4013 9.16212 37.1025 12.733 37.6682 16.5303C37.7876 17.3301 37.8563 18.1381 37.8796 18.9475C37.8838 19.1313 37.8879 19.3151 37.8879 19.4976C37.8879 19.8597 37.8769 20.2192 37.8563 20.58C37.6572 24.1303 36.5245 27.5777 34.5061 30.5272C33.4653 32.0485 32.1966 33.4492 30.7659 34.5919C30.0341 35.1777 29.2584 35.7086 28.4469 36.1792C28.0405 36.4151 27.6231 36.6332 27.2015 36.8404C27.1919 36.8445 27.1494 36.8651 27.1164 36.8815C27.1164 36.8815 27.1123 36.8829 27.1096 36.8843C27.1082 36.8857 27.1054 36.887 27.1027 36.8884L27.1013 36.8884C27.1013 36.8884 27.0917 36.8925 27.0876 36.8953C27.0848 36.8953 27.0835 36.8966 27.0807 36.898C27.0793 36.898 27.078 36.898 27.0766 36.898L27.0725 36.9007C27.0574 36.9076 27.045 36.9131 27.0437 36.9131C26.9283 36.9652 26.8144 37.0174 26.6976 37.0667C26.4807 37.16 26.2624 37.2492 26.0413 37.3356C25.5992 37.5071 25.1489 37.6607 24.693 37.7966C24.6367 37.813 24.5035 37.8528 24.4871 37.8569C24.3923 37.883 24.299 37.9077 24.2042 37.9324C23.9708 37.9914 23.7374 38.0449 23.5026 38.0942C23.2664 38.145 23.0289 38.1903 22.7914 38.2301C22.7433 38.2383 22.6952 38.2452 22.6472 38.2548L22.6431 38.2548C22.6431 38.2548 22.6376 38.2561 22.6348 38.2561C22.514 38.2726 22.3932 38.2904 22.2724 38.3041C22.0444 38.333 21.8179 38.3563 21.59 38.3755C21.476 38.3851 21.3607 38.3933 21.2467 38.4015C21.1931 38.4043 21.1423 38.407 21.0888 38.4111L21.0847 38.4111C20.5959 38.4249 20.1043 38.3919 19.6169 38.4057C19.5908 38.4043 19.5647 38.4029 19.5373 38.4015C19.4233 38.3933 19.308 38.3851 19.194 38.3755C18.951 38.3549 18.7107 38.3288 18.4677 38.2987L18.4677 39.392C20.5794 39.5717 22.7172 39.4469 24.7768 39.034C28.8025 38.2273 32.5207 36.1943 35.3478 33.2187C38.1185 30.3036 39.9406 26.531 40.5529 22.5623C40.7095 21.5485 40.7836 20.5237 40.7863 19.4962C40.7754 15.4067 39.5204 11.3461 37.167 7.99468L37.1684 7.99743ZM21.3181 26.1894L16.2928 26.1894L16.2928 12.4148L18.8384 12.4148L18.8384 20.5813L27.4102 20.5813C26.8514 23.6844 24.3141 26.0756 21.3181 26.1894ZM27.5173 18.9488L22.8229 18.9488L22.8229 12.6274C25.591 13.3078 27.4006 15.5947 27.5173 18.9488Z" fill="rgb(34,34,34)" fill-rule="nonzero" />
		<g id="Group 241">
			<path id="Vector" d="M156.781 9.51286L156.781 10.2032L151.225 10.2032L151.225 13.2709L154.43 13.2709L154.43 14.0001L151.225 14.0001L151.225 18.492L156.781 18.492L156.781 19.2212L149.372 19.2212L149.372 9.47243L156.781 9.47243L156.781 9.5113L156.781 9.51286ZM143.266 16.8143L146.741 9.47399L147.536 9.47399C145.998 12.7236 144.453 15.9701 142.923 19.2228L142.309 19.2228C140.844 15.9778 139.39 12.7251 137.938 9.47399C138.616 9.47399 139.295 9.47399 139.975 9.47399L143.268 16.8143L143.266 16.8143ZM136.071 9.51286L136.071 19.2212C135.453 19.2228 134.835 19.2228 134.216 19.2212C134.208 15.9732 134.208 12.7205 134.216 9.47243L136.071 9.47243L136.071 9.5113L136.071 9.51286ZM123.201 10.2001L123.201 9.47399L132.198 9.47399L132.198 10.239L128.848 10.239L128.848 19.2212L126.997 19.2212L126.997 10.239L123.201 10.239L123.201 10.2001ZM116.038 16.4847L120.277 16.4847L118.213 11.884L116.038 16.4847ZM113.97 19.1652L113.944 19.2212L114.74 19.2212L115.684 17.2248L120.608 17.2248L121.505 19.2212L123.542 19.2212C122.082 15.9732 120.622 12.7236 119.17 9.47243L118.557 9.47243L113.969 19.1652L113.97 19.1652ZM111.434 9.47399L112.787 9.47399L106.518 13.6269L112.4 18.9616L112.405 19.2212C111.618 19.2228 110.831 19.2212 110.043 19.2212L104.93 14.6749L104.287 15.1025L104.287 19.2197C103.67 19.2197 103.051 19.2197 102.432 19.2197C102.424 15.9716 102.424 12.7189 102.432 9.47088L104.287 9.47088L104.287 14.2271L111.422 9.47088L111.433 9.47088L111.434 9.47399ZM85.4951 16.8143L82.202 9.47399L80.1652 9.47399C81.6205 12.7236 83.0712 15.9763 84.5374 19.2228L85.1515 19.2228C86.6815 15.9701 88.227 12.7236 89.7647 9.47399L88.9702 9.47399L85.4967 16.8143L85.4951 16.8143ZM73.8261 18.5138C76.1195 18.5138 77.0649 16.3868 77.0649 14.3717C77.0649 12.3566 76.1226 10.2048 73.8277 10.2048C71.5328 10.2048 70.589 12.3598 70.589 14.3717C70.589 16.3836 71.5343 18.5138 73.8261 18.5138ZM73.8261 9.43823C76.7912 9.43823 78.7752 11.4051 78.7752 14.3748C78.7752 17.3445 76.7368 19.2818 73.8261 19.2818C70.9155 19.2818 68.8771 17.343 68.8771 14.3733C68.8771 11.4035 70.8626 9.43978 73.8261 9.43978L73.8261 9.43823ZM95.4896 18.5138C97.7829 18.5138 98.7283 16.3868 98.7283 14.3717C98.7283 12.3566 97.786 10.2048 95.4911 10.2048C93.1962 10.2048 92.2524 12.3598 92.2524 14.3717C92.2524 16.3836 93.1978 18.5138 95.4896 18.5138ZM95.4896 9.43823C98.4546 9.43823 100.439 11.4051 100.439 14.3748C100.439 17.3445 98.4002 19.2818 95.4896 19.2818C92.5789 19.2818 90.5406 17.343 90.5406 14.3733C90.5406 11.4035 92.5261 9.43978 95.4896 9.43978L95.4896 9.43823ZM62.0063 10.239L59.9415 10.239L59.9415 15.9452L62.1447 15.9452C63.6607 15.8892 64.8735 14.594 64.8735 13.0905C64.8735 11.3538 63.7369 10.239 62.0048 10.239L62.0063 10.239ZM66.7206 18.9242L66.7206 19.2181L66.3101 19.2274C65.1953 19.257 64.1023 19.2881 63.23 18.4096C62.5179 17.6959 61.8431 16.7086 60.7578 16.7086L59.9431 16.7086L59.9431 19.2197L58.0882 19.2197L58.0882 9.47088L63.1709 9.47088C65.172 9.47088 66.7221 11.1066 66.7221 13.0874C66.7221 14.7417 65.6089 16.2655 63.9701 16.6262C64.9916 17.2854 65.57 18.4998 66.7221 18.9227L66.7206 18.9242ZM51.6154 10.239L49.5506 10.239L49.5506 15.9452L51.7538 15.9452C53.2698 15.8892 54.4825 14.6034 54.4825 13.0905C54.4825 11.3522 53.3475 10.239 51.6139 10.239L51.6154 10.239ZM47.7361 9.47399L52.7784 9.47399C54.778 9.47399 56.3281 11.1112 56.3281 13.0905C56.3281 15.0698 54.8246 16.7102 52.8546 16.7102L49.5522 16.7102L49.5522 19.2212L47.6973 19.2212L47.6973 9.47243L47.7361 9.47243L47.7361 9.47399Z" fill="rgb(34,34,34)" fill-rule="evenodd" />
			<path id="Vector" d="M89.4227 21.7569L90.7754 21.7569L84.5063 25.9099L90.3882 31.2461L90.3882 31.4917C89.6435 31.5586 88.7883 31.5057 88.0311 31.5057L82.9204 26.9594L82.2752 27.387L82.2752 31.5042C81.6579 31.5042 81.039 31.5042 80.4202 31.5042L80.4202 21.7554L82.2752 21.7554L82.2752 26.5116L89.4102 21.7554L89.4227 21.7554L89.4227 21.7569ZM73.2105 30.7967C75.5039 30.7967 76.4492 28.6697 76.4492 26.6547C76.4492 24.6396 75.507 22.4877 73.2121 22.4877C70.9171 22.4877 69.9734 24.6427 69.9734 26.6547C69.9734 28.6666 70.9187 30.7967 73.2105 30.7967ZM73.2105 21.7212C76.1771 21.7212 78.1595 23.688 78.1595 26.6578C78.1595 29.6275 76.1211 31.5648 73.2105 31.5648C70.2999 31.5648 68.2615 29.6259 68.2615 26.6562C68.2615 23.6865 70.247 21.7227 73.2105 21.7227L73.2105 21.7212ZM61.3052 30.7967C63.5986 30.7967 64.5439 28.6697 64.5439 26.6547C64.5439 24.6396 63.6017 22.4877 61.3067 22.4877C59.0118 22.4877 58.068 24.6427 58.068 26.6547C58.068 28.6666 59.0118 30.7967 61.3036 30.7967L61.3052 30.7967ZM61.3052 21.7212C64.2718 21.7212 66.2542 23.688 66.2542 26.6578C66.2542 29.6275 64.2174 31.5648 61.3052 31.5648C58.393 31.5648 56.3562 29.6259 56.3562 26.6562C56.3562 23.6865 58.3417 21.7227 61.3052 21.7227L61.3052 21.7212ZM49.5756 21.7958L49.5756 30.775L55.131 30.775L55.131 31.5042L47.7222 31.5042C47.7144 28.2546 47.7222 25.005 47.7222 21.7554L49.5771 21.7554L49.5771 21.7943L49.5756 21.7958Z" fill="rgb(34,34,34)" fill-rule="evenodd" />
		</g>
	</g>
</svg>
