<svg viewBox="0 0 26 26" xmlns="http://www.w3.org/2000/svg" xmlns:xlink="http://www.w3.org/1999/xlink" width="26.000000" height="26.000000" fill="none" customFrame="#000000">
	<g id="Group">
		<path id="Vector" d="M3.39998e-17 12.4794C3.39998e-17 6.59953 0 3.64429 1.82214 1.82214C3.65959 1.19209e-07 6.59952 0 12.4794 0L13.5206 0C19.4005 0 22.3557 1.19209e-07 24.1778 1.82214C26 3.64429 26 6.59953 26 12.4794L26 13.5206C26 19.4005 26 22.3557 24.1778 24.1779C22.3557 26 19.4005 26 13.5206 26L12.4794 26C6.59952 26 3.64428 26 1.82214 24.1779C0 22.3557 3.39998e-17 19.4158 3.39998e-17 13.5206L3.39998e-17 12.4794Z" fill="rgb(34,34,34)" fill-opacity="0.699999988" fill-rule="nonzero" />
		<path id="Vector" d="M12.9999 12.9387C14.2708 12.9387 15.4192 12.4181 16.2461 11.5913C17.0729 10.7644 17.5935 9.61601 17.5935 8.3451C17.5935 7.0742 17.0729 5.92579 16.2461 5.09893C15.4192 4.27208 14.2708 3.75146 12.9999 3.75146C11.729 3.75146 10.5806 4.27208 9.75372 5.09893C8.92686 5.92579 8.40625 7.0742 8.40625 8.3451C8.40625 9.61601 8.92686 10.7644 9.75372 11.5913C10.5806 12.4181 11.7443 12.9387 12.9999 12.9387ZM11.5299 6.85983C11.9127 6.47702 12.4333 6.24734 12.9999 6.24734C13.5817 6.24734 14.1024 6.47702 14.4699 6.85983C14.8527 7.24263 15.0823 7.76324 15.0823 8.32979C15.0823 8.91165 14.8527 9.43227 14.4699 9.79976C14.0871 10.1826 13.5664 10.4122 12.9999 10.4122C12.418 10.4122 11.8974 10.1826 11.5299 9.79976C11.1471 9.41695 10.9174 8.89634 10.9174 8.32979C10.9174 7.76324 11.1624 7.24263 11.5299 6.85983Z" fill="rgb(255,255,255)" fill-rule="nonzero" />
		<path id="Vector" d="M19.1873 14.7917L17.8399 12.9542C17.7633 12.847 17.6102 12.8317 17.5183 12.9236C16.2474 14.0108 14.6856 14.7151 13.0012 14.7151C11.3169 14.7151 9.75507 14.0108 8.48416 12.9236C8.39229 12.847 8.23917 12.8624 8.1626 12.9542L6.81514 14.7917C6.75389 14.8836 6.7692 15.0061 6.84576 15.0826C7.97886 16.0013 9.2957 16.6291 10.6738 16.9507L7.82574 21.9731C7.74918 22.1109 7.85636 22.2946 8.00948 22.2946L10.7963 22.2946C10.8882 22.2946 10.9647 22.2487 10.9953 22.1568L12.9859 17.7163L14.9765 22.1568C15.0071 22.2334 15.0837 22.2946 15.1756 22.2946L17.9624 22.2946C18.1308 22.2946 18.2227 22.1262 18.1461 21.9731L15.2981 16.9507C16.6761 16.6291 17.993 16.0167 19.1261 15.0826C19.2486 15.0061 19.2639 14.8836 19.1873 14.7917Z" fill="rgb(255,255,255)" fill-rule="nonzero" />
	</g>
</svg>
