<svg viewBox="0 0 26 26" xmlns="http://www.w3.org/2000/svg" xmlns:xlink="http://www.w3.org/1999/xlink" width="26.000000" height="26.000000" fill="none">
	<rect id="Logo 1" width="26.000000" height="26.000000" x="0.000000" y="0.000000" fill="rgb(255,255,255)" fill-opacity="0" />
	<g id="Artboard">
		<path id="Oval" d="M13 26C20.1797 26 26 20.1797 26 13C26 5.8203 20.1797 0 13 0C5.8203 0 0 5.8203 0 13C0 20.1797 5.8203 26 13 26Z" fill="rgb(34,34,34)" fill-opacity="0.699999988" fill-rule="evenodd" />
		<path id="Path-3" d="M5.88265 12.8629C9.67241 11.2118 12.1995 10.1233 13.464 9.59735C17.0742 8.09573 17.8244 7.83488 18.3133 7.82626C18.4209 7.82437 18.6613 7.85102 18.8171 7.97741C18.9486 8.08412 18.9848 8.22828 19.0021 8.32946C19.0194 8.43064 19.041 8.66113 19.0238 8.84123C18.8282 10.8968 17.9817 15.8853 17.551 18.1876C17.3688 19.1618 17.0099 19.4884 16.6626 19.5204C15.9076 19.5898 15.3344 19.0215 14.6032 18.5422C13.459 17.7921 12.8126 17.3252 11.702 16.5934C10.4185 15.7476 11.2505 15.2827 11.982 14.523C12.1734 14.3241 15.4997 11.2986 15.5641 11.0242C15.5721 10.9899 15.5796 10.8619 15.5036 10.7943C15.4276 10.7268 15.3154 10.7499 15.2344 10.7683C15.1197 10.7943 13.2919 12.0024 9.75096 14.3926C9.23214 14.7489 8.7622 14.9225 8.34116 14.9134C7.87699 14.9034 6.98412 14.6509 6.32036 14.4352C5.50624 14.1705 4.85919 14.0306 4.91553 13.5812C4.94488 13.3471 5.26725 13.1077 5.88265 12.8629Z" fill="rgb(255,255,255)" fill-rule="evenodd" />
	</g>
</svg>
