<svg viewBox="0 0 22.6484 26" xmlns="http://www.w3.org/2000/svg" xmlns:xlink="http://www.w3.org/1999/xlink" width="22.648438" height="26.000000" fill="none" customFrame="#000000">
	<path id="Vector" d="M17.9689 4.07333C16.9817 2.94598 16.4376 1.49847 16.4378 0L11.9744 0L11.9744 17.9111C11.9407 18.8806 11.5318 19.7991 10.8338 20.4728C10.1358 21.1465 9.20342 21.5228 8.23333 21.5222C6.18222 21.5222 4.47778 19.8467 4.47778 17.7667C4.47778 15.2822 6.87556 13.4189 9.34556 14.1844L9.34556 9.62C4.36222 8.95555 0 12.8267 0 17.7667C0 22.5767 3.98667 26 8.21889 26C12.7544 26 16.4378 22.3167 16.4378 17.7667L16.4378 8.68111C18.2477 9.98089 20.4206 10.6783 22.6489 10.6744L22.6489 6.21111C22.6489 6.21111 19.9333 6.34111 17.9689 4.07333Z" fill="rgb(34,34,34)" fill-opacity="0.699999988" fill-rule="nonzero" />
</svg>
