<svg viewBox="0 0 25.7656 26" xmlns="http://www.w3.org/2000/svg" xmlns:xlink="http://www.w3.org/1999/xlink" width="25.765625" height="26.000000" fill="none" customFrame="#000000">
	<g id="Group">
		<g id="Group">
			<g id="v2_00000174569997819121668350000000043646675979031219_">
				<path id="Vector" d="M25.758 12.4095C25.6344 9.04049 24.2337 5.91408 21.8031 3.58415C19.4274 1.30915 16.2506 0.0137324 12.9594 0C12.9365 0 12.9182 0 12.8953 0C9.31116 0 5.96504 1.44648 3.51609 4.03732C1.15412 6.5412 -0.0909492 9.80951 0.00517759 13.2518C0.0646846 15.2842 0.609403 17.2845 1.57983 19.0651L0.440037 25.8856C0.430882 25.9451 0.481234 26 0.536164 26C0.540741 26 0.549896 26 0.554473 26L7.29708 24.4986C9.03194 25.3317 10.9453 25.7711 12.8816 25.7711C13.0052 25.7711 13.1288 25.7711 13.2478 25.7666C16.8365 25.6658 20.1598 24.1095 22.5446 21.4042C24.7326 18.9278 25.877 15.6961 25.758 12.4095ZM13.1883 23.5236C13.0876 23.5282 12.9869 23.5282 12.8816 23.5282C11.1742 23.5282 9.48511 23.1162 7.97454 22.3335L7.63123 22.1504L3.05377 23.2306L3.89602 18.6028L3.69919 18.2687C2.79743 16.7306 2.28933 14.9729 2.23898 13.1831C2.07419 7.31479 6.71116 2.40317 12.5795 2.23838C12.6848 2.2338 12.7855 2.2338 12.8907 2.2338C18.6217 2.2338 23.364 6.81127 23.5288 12.5743C23.6981 18.4426 19.0612 23.3542 13.1883 23.5236Z" fill="rgb(34,34,34)" fill-opacity="0.699999988" fill-rule="nonzero" />
				<path id="Vector" d="M8.40917 6.65564C8.19403 6.65564 7.8553 6.73346 7.56234 7.03557C7.25565 7.35141 6.39509 8.1067 6.34931 9.69965C6.29896 11.2926 7.41129 12.8673 7.56692 13.087C7.72255 13.3067 9.69544 16.7444 12.9409 18.1405C14.8497 18.9599 15.6873 19.1018 16.2275 19.1018C16.4518 19.1018 16.6211 19.0789 16.7951 19.0651C17.3902 19.0285 18.7314 18.3419 19.0243 17.5958C19.3173 16.8497 19.3356 16.1997 19.2623 16.0623C19.1845 15.925 18.974 15.838 18.6535 15.6641C18.3331 15.4901 16.7722 14.6616 16.4792 14.5426C16.3511 14.4923 16.2366 14.4511 16.1314 14.4511C15.9986 14.4511 15.8796 14.5106 15.7469 14.6799C15.4905 15.0049 14.8863 15.7144 14.6849 15.9159C14.5796 16.0211 14.4697 16.0806 14.3324 16.0806C14.2317 16.0806 14.1173 16.0486 13.9799 15.9845C13.5954 15.806 12.6342 15.4306 11.4349 14.2909C10.5011 13.4028 9.88312 12.3225 9.7046 11.993C9.52607 11.6634 9.70002 11.494 9.86481 11.3384C10.0159 11.1965 10.199 10.9722 10.3683 10.7845C10.5377 10.6014 10.5926 10.4687 10.7071 10.2535C10.8215 10.043 10.7711 9.85071 10.6979 9.68592C10.6201 9.52113 10.0433 7.90071 9.77326 7.25529C9.54896 6.71057 9.29262 6.69226 9.06375 6.67395C8.87607 6.66022 8.66093 6.65564 8.44579 6.64648C8.42748 6.65564 8.41833 6.65564 8.40917 6.65564Z" fill="rgb(34,34,34)" fill-opacity="0.699999988" fill-rule="nonzero" />
			</g>
		</g>
	</g>
</svg>
