<svg viewBox="0 0 26 26" xmlns="http://www.w3.org/2000/svg" xmlns:xlink="http://www.w3.org/1999/xlink" width="26.000000" height="26.000000" fill="none">
	<defs>
		<filter id="pixso_custom_mask_type_outline">
			<feColorMatrix type="matrix" values="0 0 0 0 1 0 0 0 0 1 0 0 0 0 1 0 0 0 1 0 " />
		</filter>
	</defs>
	<mask id="mask_1" width="25.852308" height="25.852308" x="0.056641" y="0.000000" maskUnits="userSpaceOnUse">
		<g filter="url(#pixso_custom_mask_type_outline)">
			<g id="clip0_45_484">
				<path id="Vector" d="M25.9089 0L0.0566406 0L0.0566406 25.8523L25.9089 25.8523L25.9089 0Z" fill="rgb(255,255,255)" fill-rule="evenodd" />
			</g>
		</g>
	</mask>
	<rect id="dark-icon 1" width="26.000000" height="26.000000" x="0.000000" y="0.000000" fill="rgb(255,255,255)" fill-opacity="0" />
	<g id="Clip path group" mask="url(#mask_1)">
		<g id="Group">
			<path id="Vector" d="M12.9282 25.8477L13.0312 25.8477C18.1642 25.8477 21.1436 25.3309 23.2541 23.282C25.4059 21.1086 25.9028 18.1091 25.9028 12.9961L25.9028 12.8516C25.9028 7.74015 25.4059 4.76069 23.2541 2.56569C21.1452 0.516831 18.1442 0 13.0328 0L12.9297 0C7.7968 0 4.81579 0.516831 2.7054 2.56569C0.553476 4.73915 0.0566406 7.74015 0.0566406 12.8516L0.0566406 12.9961C0.0566406 18.1075 0.553476 21.0871 2.7054 23.282C4.7958 25.3309 7.7968 25.8477 12.9282 25.8477Z" fill="rgb(34,34,34)" fill-opacity="0.699999988" fill-rule="nonzero" />
			<path id="Vector" d="M22.8252 12.7275C22.8252 12.6291 22.7452 12.5476 22.6467 12.5429C19.1139 12.4091 16.9639 11.9585 15.4598 10.4544C13.9525 8.94714 13.5034 6.79549 13.3696 3.25506C13.3665 3.15663 13.285 3.07666 13.185 3.07666L12.7729 3.07666C12.6744 3.07666 12.5929 3.15663 12.5883 3.25506C12.4545 6.79395 12.0054 8.94714 10.4982 10.4544C8.99252 11.96 6.84395 12.4091 3.31121 12.5429C3.21278 12.546 3.13281 12.6275 3.13281 12.7275L3.13281 13.1397C3.13281 13.2381 3.21278 13.3196 3.31121 13.3242C6.84395 13.458 8.99404 13.9087 10.4982 15.4128C12.0023 16.917 12.4514 19.0625 12.5868 22.589C12.5898 22.6874 12.6714 22.7674 12.7713 22.7674L13.185 22.7674C13.2835 22.7674 13.365 22.6874 13.3696 22.589C13.505 19.0625 13.954 16.917 15.4582 15.4128C16.9639 13.9071 19.1124 13.458 22.6452 13.3242C22.7436 13.3212 22.8236 13.2396 22.8236 13.1397L22.8236 12.7275L22.8252 12.7275Z" fill="rgb(255,255,255)" fill-rule="nonzero" />
		</g>
	</g>
</svg>
