<svg viewBox="0 0 37.1426 26" xmlns="http://www.w3.org/2000/svg" xmlns:xlink="http://www.w3.org/1999/xlink" width="37.142578" height="26.000000" fill="none" customFrame="#000000">
	<path id="Vector" d="M14.8571 18.5714L24.4957 13L14.8571 7.42857L14.8571 18.5714ZM36.3257 4.03C36.5671 4.90286 36.7343 6.07286 36.8457 7.55857C36.9757 9.04428 37.0314 10.3257 37.0314 11.44L37.1429 13C37.1429 17.0671 36.8457 20.0571 36.3257 21.97C35.8614 23.6414 34.7843 24.7186 33.1129 25.1829C32.24 25.4243 30.6429 25.5914 28.1914 25.7029C25.7771 25.8329 23.5671 25.8886 21.5243 25.8886L18.5714 26C10.79 26 5.94286 25.7029 4.03 25.1829C2.35857 24.7186 1.28143 23.6414 0.817143 21.97C0.575714 21.0971 0.408572 19.9271 0.297143 18.4414C0.167143 16.9557 0.111428 15.6743 0.111428 14.56L0 13C0 8.93286 0.297143 5.94286 0.817143 4.03C1.28143 2.35857 2.35857 1.28143 4.03 0.817143C4.90286 0.575714 6.5 0.408571 8.95143 0.297143C11.3657 0.167143 13.5757 0.111428 15.6186 0.111428L18.5714 0C26.3529 0 31.2 0.297143 33.1129 0.817143C34.7843 1.28143 35.8614 2.35857 36.3257 4.03Z" fill="rgb(34,34,34)" fill-opacity="0.699999988" fill-rule="nonzero" />
</svg>
