<svg viewBox="0 0 24 24" xmlns="http://www.w3.org/2000/svg" xmlns:xlink="http://www.w3.org/1999/xlink" width="24.000000" height="24.000000" fill="none">
	<rect id="category" width="24.000000" height="24.000000" x="0.000000" y="0.000000" />
	<path id="Vector" d="M4.15224 15.2344C4.35523 14.7443 4.74432 14.3552 5.23438 14.1522C5.60192 14 6.06786 14 6.99974 14C7.93163 14 8.39808 14 8.76562 14.1522C9.25568 14.3552 9.64467 14.7443 9.84766 15.2344C9.9999 15.6019 9.9999 16.0681 9.9999 17C9.9999 17.9319 9.9999 18.3978 9.84766 18.7654C9.64467 19.2554 9.25568 19.6447 8.76562 19.8477C8.39808 19.9999 7.93162 19.9999 6.99974 19.9999C6.06786 19.9999 5.60192 19.9999 5.23438 19.8477C4.74432 19.6447 4.35523 19.2557 4.15224 18.7656C4 18.3981 4 17.9316 4 16.9997C4 16.0679 4 15.6019 4.15224 15.2344ZM14.1522 5.23438C14.3552 4.74432 14.7443 4.35523 15.2344 4.15224C15.6019 4 16.0679 4 16.9997 4C17.9316 4 18.3981 4 18.7656 4.15224C19.2557 4.35523 19.6447 4.74432 19.8477 5.23438C19.9999 5.60192 19.9999 6.06812 19.9999 7C19.9999 7.93188 19.9999 8.39783 19.8477 8.76537C19.6447 9.25542 19.2557 9.64467 18.7656 9.84766C18.3981 9.9999 17.9316 9.9999 16.9997 9.9999C16.0679 9.9999 15.6019 9.9999 15.2344 9.84766C14.7443 9.64467 14.3552 9.25568 14.1522 8.76562C14 8.39808 14 7.93163 14 6.99974C14 6.06786 14 5.60192 14.1522 5.23438ZM4.15224 5.23438C4.35523 4.74432 4.74432 4.35523 5.23438 4.15224C5.60192 4 6.06786 4 6.99974 4C7.93163 4 8.39808 4 8.76562 4.15224C9.25568 4.35523 9.64467 4.74432 9.84766 5.23438C9.9999 5.60192 9.9999 6.06812 9.9999 7C9.9999 7.93188 9.9999 8.39783 9.84766 8.76537C9.64467 9.25542 9.25568 9.64467 8.76562 9.84766C8.39808 9.9999 7.93162 9.9999 6.99974 9.9999C6.06786 9.9999 5.60192 9.9999 5.23438 9.84766C4.74432 9.64467 4.35523 9.25568 4.15224 8.76562C4 8.39808 4 7.93163 4 6.99974C4 6.06786 4 5.60192 4.15224 5.23438ZM14.1522 15.2344C14.3552 14.7443 14.7443 14.3552 15.2344 14.1522C15.6019 14 16.0679 14 16.9997 14C17.9316 14 18.3981 14 18.7656 14.1522C19.2557 14.3552 19.6447 14.7443 19.8477 15.2344C19.9999 15.6019 19.9999 16.0681 19.9999 17C19.9999 17.9319 19.9999 18.3978 19.8477 18.7654C19.6447 19.2554 19.2557 19.6447 18.7656 19.8477C18.3981 19.9999 17.9316 19.9999 16.9997 19.9999C16.0679 19.9999 15.6019 19.9999 15.2344 19.8477C14.7443 19.6447 14.3552 19.2557 14.1522 18.7656C14 18.3981 14 17.9316 14 16.9997C14 16.0679 14 15.6019 14.1522 15.2344Z" fill-rule="evenodd" stroke="rgb(34,34,34)" stroke-linecap="round" stroke-linejoin="round" stroke-width="1.000000" />
</svg>
