<svg viewBox="0 0 22 22" xmlns="http://www.w3.org/2000/svg" xmlns:xlink="http://www.w3.org/1999/xlink" width="22.000000" height="22.000000" fill="none">
	<rect id="heart" width="22.000000" height="22.000000" x="0.000000" y="0.000000" />
	<path id="Icon" d="M3.98868 4.06001C1.48363 6.20038 1.13095 9.77898 3.09818 12.3104C4.7338 14.4151 9.68376 18.8541 11.3061 20.2908C11.4876 20.4516 11.5783 20.5319 11.6842 20.5635C11.7766 20.5911 11.8777 20.5911 11.9701 20.5635C12.0759 20.5319 12.1667 20.4516 12.3482 20.2908C13.9705 18.8541 18.9205 14.4151 20.5561 12.3104C22.5233 9.77898 22.2137 6.17787 19.6656 4.06001C17.1175 1.94216 13.8265 2.5484 11.8271 4.88581C9.82778 2.5484 6.49373 1.91964 3.98868 4.06001Z" fill-rule="evenodd" stroke="rgb(34,34,34)" stroke-linecap="round" stroke-linejoin="round" stroke-width="1.000000" />
</svg>
