<svg viewBox="0 0 24 24" xmlns="http://www.w3.org/2000/svg" xmlns:xlink="http://www.w3.org/1999/xlink" width="24.000000" height="24.000000" fill="none">
	<rect id="icon / bootstrap / outline &amp; logos / box2-heart" width="24.000000" height="24.000000" x="0.000000" y="0.000000" fill="rgb(255,255,255)" fill-opacity="0" />
	<path id="Vector" d="M11.9996 11.9729C14.4956 9.46344 20.7371 13.8539 11.9996 19.4999C3.26211 13.8539 9.50361 9.46494 11.9996 11.9729Z" fill="rgb(34,34,34)" fill-rule="nonzero" />
	<path id="Vector" d="M5.625 0C5.39213 -9.88792e-17 5.16246 0.0542176 4.95418 0.158359C4.7459 0.262501 4.56472 0.413706 4.425 0.6L0.15 6.3C0.0526334 6.42982 1.04083e-17 6.58772 0 6.75L3.1225e-17 22.5C2.498e-16 22.8978 0.158035 23.2794 0.43934 23.5607C0.720644 23.842 1.10218 24 1.5 24L22.5 24C22.8978 24 23.2794 23.842 23.5607 23.5607C23.842 23.2794 24 22.8978 24 22.5L24 6.75C24 6.58772 23.9474 6.42982 23.85 6.3L19.575 0.6C19.4353 0.413706 19.2541 0.262501 19.0458 0.158359C18.8375 0.0542176 18.6079 -2.44596e-16 18.375 1.04083e-17L5.625 0ZM5.625 1.5L11.25 1.5L11.25 6L2.25 6L5.625 1.5ZM12.75 6L12.75 1.5L18.375 1.5L21.75 6L12.75 6ZM22.5 7.5L22.5 22.5L1.5 22.5L1.5 7.5L22.5 7.5Z" fill="rgb(34,34,34)" fill-rule="nonzero" />
</svg>
