<svg viewBox="0 0 25.5 17.0998" xmlns="http://www.w3.org/2000/svg" xmlns:xlink="http://www.w3.org/1999/xlink" width="25.500000" height="17.099792" fill="none" customFrame="#000000">
	<g id="Group 73">
		<path id="Vector" d="M9.15156 13.9498C9.15156 12.6243 8.07705 11.5498 6.75156 11.5498C5.42608 11.5498 4.35156 12.6243 4.35156 13.9498C4.35156 15.2753 5.42608 16.3498 6.75156 16.3498C8.07705 16.3498 9.15156 15.2753 9.15156 13.9498Z" fill-rule="nonzero" stroke="rgb(34,34,34)" stroke-linecap="round" stroke-linejoin="round" stroke-width="1.500000" />
		<path id="Vector" d="M21.1516 13.9498C21.1516 12.6243 20.0771 11.5498 18.7516 11.5498C17.426 11.5498 16.3516 12.6243 16.3516 13.9498C16.3516 15.2753 17.426 16.3498 18.7516 16.3498C20.0771 16.3498 21.1516 15.2753 21.1516 13.9498Z" fill-rule="nonzero" stroke="rgb(34,34,34)" stroke-linecap="round" stroke-linejoin="round" stroke-width="1.500000" />
		<path id="Vector" d="M15.15 13.95L15.15 1.47C15.15 1.07236 14.8277 0.75 14.43 0.75L1.47 0.75C1.07236 0.75 0.75 1.07236 0.75 1.47L0.75 13.23C0.75 13.6277 1.07236 13.95 1.47 13.95L3.93 13.95" fill-rule="nonzero" stroke="rgb(34,34,34)" stroke-linecap="round" stroke-width="1.500000" />
		<path id="Vector" d="M15.1509 13.95L9.21094 13.95" stroke="rgb(34,34,34)" stroke-linecap="round" stroke-width="1.500000" />
		<path id="Vector" d="M15.1484 4.34961L21.8806 4.34961C22.1651 4.34961 22.423 4.51718 22.5385 4.77719L24.6864 9.60993C24.7273 9.70209 24.7484 9.80169 24.7484 9.90237L24.7484 13.2296C24.7484 13.6273 24.4261 13.9496 24.0284 13.9496L21.7484 13.9496" fill-rule="nonzero" stroke="rgb(34,34,34)" stroke-linecap="round" stroke-width="1.500000" />
		<path id="Vector" d="M15.1484 13.9502L16.3484 13.9502" stroke="rgb(34,34,34)" stroke-linecap="round" stroke-width="1.500000" />
	</g>
</svg>
