<svg viewBox="0 0 32 32" xmlns="http://www.w3.org/2000/svg" xmlns:xlink="http://www.w3.org/1999/xlink" width="32.000000" height="32.000000" fill="none" customFrame="#000000">
	<defs>
		<clipPath id="clipPath_2">
			<rect width="31.024761" height="31.024761" x="0.487619" y="0.487619" rx="9.264762" fill="rgb(255,255,255)" />
		</clipPath>
		<clipPath id="clipPath_3">
			<rect width="28.133564" height="28.133564" x="1.933594" y="2.289062" fill="rgb(255,255,255)" />
		</clipPath>
	</defs>
	<g id="Group 79">
		<g id="Frame 35" clip-path="url(#clipPath_2)" customFrame="url(#clipPath_2)">
			<rect id="Frame 35" width="31.024761" height="31.024761" x="0.487619" y="0.487619" rx="9.264762" stroke="rgb(34,34,34)" stroke-opacity="0" stroke-width="0.975238" />
		</g>
		<g id="Laundry Symbols" clip-path="url(#clipPath_3)" customFrame="url(#clipPath_3)">
			<rect id="Laundry Symbols" width="28.133564" height="28.133564" x="1.933594" y="2.289062" fill="rgb(255,255,255)" fill-opacity="0" />
			<path id="MaxTem150C/300F" d="M9.2081 9.17808L26.0208 9.17808L26.0208 14.0039C25.7105 13.9825 25.3047 13.9577 24.7967 13.933C23.4272 13.8665 21.3146 13.8003 18.3276 13.8003C12.3863 13.8003 9.22066 14.4877 7.24068 17.3023C6.29992 18.6396 5.66767 20.3253 5.27279 21.6402C5.07334 22.3044 4.93034 22.8881 4.837 23.3066C4.79028 23.5162 4.75587 23.6849 4.73296 23.8023C4.7215 23.861 4.7129 23.907 4.70707 23.9388L4.70038 23.9759L4.69857 23.9862L4.69776 23.9909L4.55469 24.8225L27.443 24.8225L27.443 7.75586L9.2081 7.75586L9.2081 9.17808ZM24.7276 15.3536C25.2827 15.3806 25.7106 15.4075 26.0208 15.4297L26.0208 23.4003L6.27446 23.4003C6.3605 23.0325 6.47954 22.5667 6.63491 22.0493C7.01417 20.7864 7.59378 19.2722 8.40391 18.1206C9.92571 15.9573 12.363 15.2225 18.3276 15.2225C21.2937 15.2225 23.3832 15.2882 24.7276 15.3536ZM15.2214 19.8447C15.2214 20.6302 14.5846 21.267 13.7991 21.267C13.0137 21.267 12.3769 20.6302 12.3769 19.8447C12.3769 19.0593 13.0137 18.4225 13.7991 18.4225C14.5846 18.4225 15.2214 19.0593 15.2214 19.8447ZM20.9102 19.8447C20.9102 20.6302 20.2735 21.267 19.488 21.267C18.7025 21.267 18.0658 20.6302 18.0658 19.8447C18.0658 19.0593 18.7025 18.4225 19.488 18.4225C20.2735 18.4225 20.9102 19.0593 20.9102 19.8447Z" fill="rgb(34,34,34)" fill-rule="evenodd" />
			<rect id="Laundry Symbols" width="27.422453" height="27.422453" x="2.289149" y="2.644618" stroke="rgb(34,34,34)" stroke-opacity="0" stroke-width="0.711111" />
		</g>
	</g>
</svg>
