<svg viewBox="0 0 32 32" xmlns="http://www.w3.org/2000/svg" xmlns:xlink="http://www.w3.org/1999/xlink" width="32.000000" height="32.000000" fill="none" customFrame="#000000">
	<defs>
		<clipPath id="clipPath_0">
			<rect width="31.024761" height="31.024761" x="0.487619" y="0.487619" rx="9.264762" fill="rgb(255,255,255)" />
		</clipPath>
		<clipPath id="clipPath_1">
			<rect width="28.133564" height="28.133564" x="1.933594" y="2.289062" fill="rgb(255,255,255)" />
		</clipPath>
	</defs>
	<g id="Group 78">
		<g id="Frame 34" clip-path="url(#clipPath_0)" customFrame="url(#clipPath_0)">
			<rect id="Frame 34" width="31.024761" height="31.024761" x="0.487619" y="0.487619" rx="9.264762" stroke="rgb(34,34,34)" stroke-opacity="0" stroke-width="0.975238" />
		</g>
		<g id="Laundry Symbols" clip-path="url(#clipPath_1)" customFrame="url(#clipPath_1)">
			<rect id="Laundry Symbols" width="28.133564" height="28.133564" x="1.933594" y="2.289062" fill="rgb(255,255,255)" fill-opacity="0" />
			<path id="30C/80F" d="M7.03321 24.1855L3.84375 5.86651L5.24489 5.62256L5.8717 9.2227C5.9457 9.23854 6.03392 9.25427 6.13728 9.26856C6.42528 9.30839 6.7747 9.32985 7.14725 9.33042C7.90574 9.33156 8.67624 9.24627 9.15371 9.10224C10.0842 8.82156 11.4596 8.09637 11.9601 7.73403L12.3639 7.44167L12.7764 7.72164C13.6756 8.3319 14.843 9.07194 16.2882 9.07194C17.736 9.07194 18.7355 8.43124 19.8049 7.71835L20.1482 7.48944L20.5173 7.674C21.2339 8.0323 22.439 8.57025 22.8774 8.69121C24.0567 9.01667 25.2678 8.72492 26.1652 8.11579L26.5993 5.62256L28.0005 5.86651L24.811 24.1855L24.811 26.3668L7.03321 26.3668L7.03321 24.1855ZM8.45543 24.0626L6.12899 10.7004C6.44718 10.7354 6.79455 10.7521 7.14511 10.7526C7.97254 10.7539 8.89887 10.6646 9.56444 10.4639C10.4559 10.195 11.6331 9.61192 12.3727 9.16205C13.2848 9.7555 14.625 10.4942 16.2882 10.4942C18.0085 10.4942 19.2484 9.78518 20.2531 9.12746C20.983 9.47624 22.0011 9.92477 22.499 10.0622C23.6728 10.3861 24.8478 10.2659 25.8595 9.87185L23.3888 24.0626L23.3888 24.9445L8.45543 24.9445L8.45543 24.0626ZM15.9326 19.8448C16.7181 19.8448 17.3549 19.208 17.3549 18.4226C17.3549 17.6371 16.7181 17.0003 15.9326 17.0003C15.1472 17.0003 14.5104 17.6371 14.5104 18.4226C14.5104 19.208 15.1472 19.8448 15.9326 19.8448Z" fill="rgb(34,34,34)" fill-rule="evenodd" />
			<rect id="Laundry Symbols" width="27.422453" height="27.422453" x="2.289149" y="2.644618" stroke="rgb(34,34,34)" stroke-opacity="0" stroke-width="0.711111" />
		</g>
	</g>
</svg>
