<svg viewBox="0 0 25.5117 23.4474" xmlns="http://www.w3.org/2000/svg" xmlns:xlink="http://www.w3.org/1999/xlink" width="25.511719" height="23.447388" fill="none" customFrame="#000000">
	<g id="Group 71">
		<path id="Vector" d="M1.78125 9.28516L1.78125 20.2589C1.78125 21.6057 2.87305 22.6975 4.21985 22.6975L21.2901 22.6975C22.6369 22.6975 23.7287 21.6057 23.7287 20.2589L23.7287 9.28516" fill-rule="nonzero" stroke="rgb(34,34,34)" stroke-width="1.500000" />
		<path id="Vector" d="M16.2103 22.6978L16.2103 15.382C16.2103 14.0351 15.1186 12.9434 13.7717 12.9434L11.3331 12.9434C9.98633 12.9434 8.89453 14.0351 8.89453 15.382L8.89453 22.6978" fill-rule="nonzero" stroke="rgb(34,34,34)" stroke-width="1.500000" />
		<path id="Vector" d="M22.6579 1.2806C22.5682 0.966536 22.2812 0.75 21.9545 0.75L17.0195 0.75L17.5991 7.70461C17.6181 7.93221 17.7417 8.13779 17.9379 8.25474C18.4126 8.53765 19.3425 9.06196 20.0678 9.28511C21.3064 9.66614 23.117 9.52872 24.1482 9.40192C24.577 9.34924 24.8422 8.92529 24.7234 8.50985L22.6579 1.2806Z" fill-rule="nonzero" stroke="rgb(34,34,34)" stroke-width="1.500000" />
		<path id="Vector" d="M17.2535 8.29512C17.4875 8.15708 17.6163 7.89636 17.5937 7.62569L17.0208 0.75L8.48567 0.75L7.9127 7.62569C7.89014 7.89636 8.01896 8.15708 8.25286 8.29512C8.74425 8.58509 9.62267 9.07219 10.3146 9.28511C12.135 9.84525 13.3714 9.84525 15.1918 9.28511C15.8838 9.07219 16.7622 8.58509 17.2535 8.29512Z" fill-rule="nonzero" stroke="rgb(34,34,34)" stroke-width="1.500000" />
		<path id="Vector" d="M0.782306 8.50985C0.663607 8.92529 0.928793 9.34924 1.35762 9.40192C2.38874 9.52872 4.1995 9.66614 5.43801 9.28511C6.16322 9.06196 7.09323 8.53765 7.56786 8.25474C7.76404 8.13779 7.88775 7.93221 7.90672 7.70461L8.48627 0.75L3.55124 0.75C3.2246 0.75 2.93754 0.966536 2.84781 1.2806L0.782306 8.50985Z" fill-rule="nonzero" stroke="rgb(34,34,34)" stroke-width="1.500000" />
	</g>
</svg>
